<svg viewBox="0 0 594 171" fill="none" xmlns="http://www.w3.org/2000/svg">
<path d="M2.5 38L169 140L347 33.5L527.5 140" stroke="#65D46E" stroke-width="8"/>
<path d="M102 13C102 5.8203 107.82 0 115 0H225C232.18 0 238 5.8203 238 13V158C238 165.18 232.18 171 225 171H115C107.82 171 102 165.18 102 158V13Z" fill="#282828"/>
<mask id="mask0_449_8533" style="mask-type:alpha" maskUnits="userSpaceOnUse" x="113" y="8" width="114" height="114">
<path d="M227 8H113V122H227V8Z" fill="white"/>
</mask>
<g mask="url(#mask0_449_8533)">
<path d="M195.062 79.9785C195.899 93.3237 196.735 106.672 175.344 107.677V125.333C175.344 125.333 168.854 129.125 160.203 129.125C151.551 129.125 145.062 122.932 145.062 122.932V88.3273C144.713 86.4942 144.468 84.6429 144.328 82.7822C142.238 82.6112 140.275 81.7077 138.785 80.231C137.295 78.7543 136.374 76.7992 136.185 74.7102C135.995 72.6211 136.549 70.5323 137.749 68.8116C138.949 67.091 140.717 65.849 142.743 65.3046C140.36 48.3328 144.186 31.1562 170.002 31.1562C195.985 31.1562 195.358 50.8925 194.862 66.4517C194.797 68.4912 194.734 70.4595 194.734 72.3013C194.734 74.8004 194.896 77.3886 195.06 79.9785H195.062Z" fill="#D89E7D"/>
<path d="M144.328 82.784C144.047 79.2749 144.047 75.7053 144.047 72.3031C143.512 69.9906 143.076 67.6562 142.741 65.3064C140.719 65.8547 138.955 67.098 137.759 68.8178C136.563 70.5377 136.011 72.624 136.2 74.7104C136.389 76.7968 137.308 78.7498 138.794 80.2263C140.28 81.7028 142.239 82.6084 144.327 82.784H144.328ZM145.062 88.3237V122.926C145.062 122.926 151.551 129.12 160.203 129.12C168.854 129.12 175.343 125.326 175.343 125.326V107.673C174.488 107.713 173.6 107.732 172.675 107.732C153.452 107.732 147.137 98.9221 145.062 88.3219V88.3237Z" fill="black" fill-opacity="0.07"/>
<path d="M175.222 107.679C174.405 107.716 173.557 107.736 172.675 107.736C159.765 107.736 152.677 103.762 148.785 97.9389C149.681 106.53 154.417 113.067 163.557 113.067C164.43 113.067 165.239 113.074 165.988 113.079C172.75 113.138 174.756 113.156 175.222 107.681V107.679Z" fill="black" fill-opacity="0.07"/>
<path d="M180.688 81.0312H178.906C177.922 81.0312 177.125 81.8287 177.125 82.8125C177.125 83.7963 177.922 84.5938 178.906 84.5938H180.688C181.671 84.5938 182.469 83.7963 182.469 82.8125C182.469 81.8287 181.671 81.0312 180.688 81.0312Z" fill="black" fill-opacity="0.07"/>
<path d="M180.688 114.875H141.5C132.646 114.875 125.469 122.052 125.469 130.906V139.812C125.469 148.666 132.646 155.844 141.5 155.844H180.688C189.541 155.844 196.719 148.666 196.719 139.812V130.906C196.719 122.052 189.541 114.875 180.688 114.875Z" fill="#3F7EA2"/>
<path d="M152.184 57.875C151.064 63.2188 153.965 70.3117 153.965 71.669C153.965 73.0263 146.965 77.0573 145.059 78.3612C143.155 79.6633 142.387 65.8924 142.387 65.8924C137.043 65.8924 136.153 75.6893 136.153 75.6893C136.153 75.6893 132.156 74.3712 130.809 67.6737C129.901 63.1493 131.342 53.2651 131.7 50.7518C132.59 44.5174 133.481 30.2674 145.059 23.1424C156.637 16.0174 186.028 16.0174 193.153 17.7987C210.776 22.2037 213.135 46.2737 207.403 54.3143C198.496 64.1112 173.559 52.533 165.543 52.533C157.528 52.533 153.306 52.533 152.184 57.8768V57.875Z" fill="#925E53"/>
<path d="M164.532 89.9375C164.532 89.4651 164.719 89.012 165.053 88.678C165.388 88.3439 165.841 88.1562 166.313 88.1562H182.597C183.07 88.1562 183.523 88.3439 183.857 88.678C184.191 89.012 184.378 89.4651 184.378 89.9375C184.378 92.2996 183.44 94.5649 181.77 96.2352C180.1 97.9054 177.834 98.8438 175.472 98.8438H173.438C171.076 98.8438 168.811 97.9054 167.14 96.2352C165.47 94.5649 164.532 92.2996 164.532 89.9375V89.9375Z" fill="#323232"/>
<path d="M178.472 98.3236C177.509 98.6669 176.495 98.8417 175.472 98.8402H173.438C171.138 98.8402 168.927 97.9501 167.268 96.3563C165.609 94.7626 164.631 92.5887 164.539 90.2902C165.9 89.7825 167.92 89.8395 169.913 89.8983C170.547 89.9161 171.178 89.9339 171.783 89.9339C175.72 89.9339 178.908 92.7269 178.908 96.1683C178.908 96.9271 178.753 97.6521 178.472 98.3236V98.3236Z" fill="#FF4949"/>
<path d="M166.438 88.1562H184.25V89.9375C184.25 90.4099 184.062 90.863 183.728 91.197C183.394 91.5311 182.941 91.7188 182.469 91.7188H168.219C167.746 91.7188 167.293 91.5311 166.959 91.197C166.625 90.863 166.438 90.4099 166.438 89.9375V88.1562Z" fill="white"/>
<path d="M166.438 73.0156C166.438 72.307 166.719 71.6274 167.22 71.1263C167.721 70.6252 168.401 70.3438 169.109 70.3438C169.818 70.3438 170.498 70.6252 170.999 71.1263C171.5 71.6274 171.781 72.307 171.781 73.0156V75.2012C171.781 75.4684 171.564 75.6875 171.295 75.6875H166.924C166.795 75.6875 166.671 75.6363 166.58 75.5451C166.489 75.4539 166.438 75.3302 166.438 75.2012V73.0156V73.0156ZM184.25 73.0156C184.25 72.307 184.531 71.6274 185.033 71.1263C185.534 70.6252 186.213 70.3438 186.922 70.3438C187.631 70.3438 188.31 70.6252 188.811 71.1263C189.312 71.6274 189.594 72.307 189.594 73.0156V75.2012C189.594 75.4684 189.376 75.6875 189.107 75.6875H184.736C184.607 75.6875 184.484 75.6363 184.392 75.5451C184.301 75.4539 184.25 75.3302 184.25 75.2012V73.0156V73.0156Z" fill="#6F935F"/>
</g>
<path d="M145.635 139.545H149.282V151.716C149.282 152.841 149.029 153.818 148.524 154.648C148.024 155.477 147.328 156.116 146.436 156.565C145.544 157.014 144.507 157.239 143.325 157.239C142.274 157.239 141.319 157.054 140.461 156.685C139.609 156.31 138.933 155.741 138.433 154.98C137.933 154.213 137.686 153.25 137.691 152.091H141.365C141.376 152.551 141.47 152.946 141.646 153.276C141.828 153.599 142.075 153.849 142.387 154.026C142.706 154.196 143.081 154.281 143.512 154.281C143.967 154.281 144.35 154.185 144.663 153.991C144.981 153.793 145.223 153.503 145.387 153.122C145.552 152.741 145.635 152.273 145.635 151.716V139.545ZM155.998 157.247C155.163 157.247 154.419 157.102 153.765 156.812C153.112 156.517 152.595 156.082 152.214 155.509C151.839 154.929 151.652 154.207 151.652 153.344C151.652 152.616 151.785 152.006 152.052 151.511C152.319 151.017 152.683 150.619 153.143 150.318C153.603 150.017 154.126 149.79 154.711 149.636C155.302 149.483 155.922 149.375 156.569 149.312C157.331 149.233 157.944 149.159 158.41 149.091C158.876 149.017 159.214 148.909 159.424 148.767C159.635 148.625 159.74 148.415 159.74 148.136V148.085C159.74 147.545 159.569 147.128 159.228 146.832C158.893 146.537 158.416 146.389 157.797 146.389C157.143 146.389 156.623 146.534 156.237 146.824C155.85 147.108 155.595 147.466 155.47 147.898L152.112 147.625C152.282 146.83 152.618 146.142 153.118 145.562C153.618 144.977 154.262 144.528 155.052 144.216C155.848 143.898 156.768 143.739 157.814 143.739C158.541 143.739 159.237 143.824 159.902 143.994C160.572 144.165 161.166 144.429 161.683 144.787C162.206 145.145 162.618 145.605 162.919 146.168C163.22 146.724 163.37 147.392 163.37 148.17V157H159.927V155.185H159.825C159.615 155.594 159.333 155.955 158.981 156.267C158.629 156.574 158.206 156.815 157.711 156.991C157.217 157.162 156.646 157.247 155.998 157.247ZM157.038 154.741C157.572 154.741 158.044 154.636 158.453 154.426C158.862 154.21 159.183 153.92 159.416 153.557C159.649 153.193 159.765 152.781 159.765 152.321V150.932C159.652 151.006 159.495 151.074 159.297 151.136C159.103 151.193 158.885 151.247 158.64 151.298C158.396 151.344 158.152 151.386 157.907 151.426C157.663 151.46 157.441 151.491 157.243 151.52C156.816 151.582 156.444 151.682 156.126 151.818C155.808 151.955 155.561 152.139 155.385 152.372C155.208 152.599 155.12 152.884 155.12 153.224C155.12 153.719 155.299 154.097 155.657 154.358C156.021 154.614 156.481 154.741 157.038 154.741ZM169.818 149.432V157H166.187V143.909H169.647V146.219H169.801C170.091 145.457 170.576 144.855 171.258 144.412C171.94 143.963 172.767 143.739 173.738 143.739C174.647 143.739 175.44 143.938 176.116 144.335C176.792 144.733 177.318 145.301 177.693 146.04C178.068 146.773 178.255 147.648 178.255 148.665V157H174.625V149.312C174.63 148.511 174.426 147.886 174.011 147.438C173.596 146.983 173.025 146.756 172.298 146.756C171.809 146.756 171.377 146.861 171.002 147.071C170.633 147.281 170.343 147.588 170.133 147.991C169.929 148.389 169.824 148.869 169.818 149.432ZM201.339 139.545V157H198.152L190.558 146.014H190.43V157H186.74V139.545H189.978L197.512 150.523H197.666V139.545H201.339Z" fill="white"/>
<path d="M280 13C280 5.8203 285.82 0 293 0H403C410.18 0 416 5.8203 416 13V158C416 165.18 410.18 171 403 171H293C285.82 171 280 165.18 280 158V13Z" fill="#282828"/>
<mask id="mask1_449_8533" style="mask-type:alpha" maskUnits="userSpaceOnUse" x="291" y="8" width="114" height="114">
<path d="M405 8H291V122H405V8Z" fill="white"/>
</mask>
<g mask="url(#mask1_449_8533)">
<path d="M373.062 79.9785C373.899 93.3237 374.735 106.672 353.344 107.677V125.333C353.344 125.333 346.855 129.125 338.203 129.125C329.552 129.125 323.063 122.932 323.063 122.932V88.3273C322.714 86.4942 322.468 84.6429 322.329 82.7822C320.238 82.6112 318.275 81.7077 316.785 80.231C315.295 78.7543 314.375 76.7992 314.185 74.7102C313.996 72.6211 314.55 70.5323 315.749 68.8116C316.949 67.091 318.718 65.849 320.743 65.3046C318.36 48.3328 322.186 31.1562 348.002 31.1562C373.985 31.1562 373.358 50.8925 372.863 66.4517C372.797 68.4912 372.734 70.4595 372.734 72.3013C372.734 74.8004 372.897 77.3886 373.06 79.9785H373.062Z" fill="#575757"/>
<path d="M322.329 82.784C322.047 79.2749 322.047 75.7053 322.047 72.3031C321.512 69.9906 321.077 67.6562 320.741 65.3064C318.72 65.8547 316.956 67.098 315.759 68.8178C314.563 70.5377 314.011 72.624 314.2 74.7104C314.39 76.7968 315.308 78.7498 316.794 80.2263C318.28 81.7028 320.239 82.6084 322.327 82.784H322.329ZM323.062 88.3237V122.926C323.062 122.926 329.552 129.12 338.203 129.12C346.855 129.12 353.344 125.326 353.344 125.326V107.673C352.489 107.713 351.6 107.732 350.675 107.732C331.452 107.732 325.138 98.9221 323.062 88.3219V88.3237Z" fill="black" fill-opacity="0.07"/>
<path d="M353.223 107.679C352.405 107.716 351.557 107.736 350.676 107.736C337.765 107.736 330.677 103.762 326.785 97.9389C327.681 106.53 332.418 113.067 341.557 113.067C342.43 113.067 343.239 113.074 343.989 113.079C350.75 113.138 352.756 113.156 353.223 107.681V107.679Z" fill="black" fill-opacity="0.07"/>
<path d="M358.688 81.0312H356.906C355.922 81.0312 355.125 81.8287 355.125 82.8125C355.125 83.7963 355.922 84.5938 356.906 84.5938H358.688C359.671 84.5938 360.469 83.7963 360.469 82.8125C360.469 81.8287 359.671 81.0312 358.688 81.0312Z" fill="black" fill-opacity="0.07"/>
<path d="M358.688 114.875H319.5C310.646 114.875 303.469 122.052 303.469 130.906V139.812C303.469 148.666 310.646 155.844 319.5 155.844H358.688C367.541 155.844 374.719 148.666 374.719 139.812V130.906C374.719 122.052 367.541 114.875 358.688 114.875Z" fill="#8C8C8C"/>
<path d="M330.184 57.875C329.064 63.2188 331.965 70.3117 331.965 71.669C331.965 73.0263 324.965 77.0573 323.059 78.3612C321.155 79.6633 320.387 65.8924 320.387 65.8924C315.043 65.8924 314.153 75.6893 314.153 75.6893C314.153 75.6893 310.156 74.3712 308.809 67.6737C307.901 63.1493 309.342 53.2651 309.7 50.7518C310.59 44.5174 311.481 30.2674 323.059 23.1424C334.637 16.0174 364.028 16.0174 371.153 17.7987C388.776 22.2037 391.135 46.2737 385.403 54.3143C376.496 64.1112 351.559 52.533 343.543 52.533C335.528 52.533 331.306 52.533 330.184 57.8768V57.875Z" fill="#727272"/>
<path d="M342.531 89.9375C342.531 89.4651 342.719 89.012 343.053 88.678C343.387 88.3439 343.84 88.1562 344.313 88.1562H360.597C361.069 88.1562 361.522 88.3439 361.856 88.678C362.191 89.012 362.378 89.4651 362.378 89.9375C362.378 92.2996 361.44 94.5649 359.77 96.2352C358.099 97.9054 355.834 98.8438 353.472 98.8438H351.438C349.076 98.8438 346.81 97.9054 345.14 96.2352C343.47 94.5649 342.531 92.2996 342.531 89.9375V89.9375Z" fill="#323232"/>
<path d="M356.472 98.3236C355.509 98.6669 354.494 98.8417 353.472 98.8402H351.438C349.137 98.8402 346.926 97.9501 345.267 96.3563C343.608 94.7626 342.631 92.5887 342.539 90.2902C343.899 89.7825 345.919 89.8395 347.913 89.8983C348.547 89.9161 349.177 89.9339 349.783 89.9339C353.719 89.9339 356.908 92.7269 356.908 96.1683C356.908 96.9271 356.753 97.6521 356.472 98.3236V98.3236Z" fill="#7A7A7A"/>
<path d="M344.438 88.1562H362.25V89.9375C362.25 90.4099 362.062 90.863 361.728 91.197C361.394 91.5311 360.941 91.7188 360.469 91.7188H346.219C345.746 91.7188 345.293 91.5311 344.959 91.197C344.625 90.863 344.438 90.4099 344.438 89.9375V88.1562Z" fill="white"/>
<path d="M344.438 73.0156C344.438 72.307 344.719 71.6274 345.22 71.1263C345.721 70.6252 346.401 70.3438 347.109 70.3438C347.818 70.3438 348.498 70.6252 348.999 71.1263C349.5 71.6274 349.781 72.307 349.781 73.0156V75.2012C349.781 75.4684 349.564 75.6875 349.295 75.6875H344.924C344.795 75.6875 344.671 75.6363 344.58 75.5451C344.489 75.4539 344.438 75.3302 344.438 75.2012V73.0156V73.0156ZM362.25 73.0156C362.25 72.307 362.531 71.6274 363.033 71.1263C363.534 70.6252 364.213 70.3438 364.922 70.3438C365.631 70.3438 366.31 70.6252 366.811 71.1263C367.312 71.6274 367.594 72.307 367.594 73.0156V75.2012C367.594 75.4684 367.376 75.6875 367.107 75.6875H362.736C362.607 75.6875 362.484 75.6363 362.392 75.5451C362.301 75.4539 362.25 75.3302 362.25 75.2012V73.0156V73.0156Z" fill="#272727"/>
</g>
<path d="M323.635 139.545H327.282V151.716C327.282 152.841 327.029 153.818 326.524 154.648C326.024 155.477 325.328 156.116 324.436 156.565C323.544 157.014 322.507 157.239 321.325 157.239C320.274 157.239 319.319 157.054 318.461 156.685C317.609 156.31 316.933 155.741 316.433 154.98C315.933 154.213 315.686 153.25 315.691 152.091H319.365C319.376 152.551 319.47 152.946 319.646 153.276C319.828 153.599 320.075 153.849 320.387 154.026C320.706 154.196 321.081 154.281 321.512 154.281C321.967 154.281 322.35 154.185 322.663 153.991C322.981 153.793 323.223 153.503 323.387 153.122C323.552 152.741 323.635 152.273 323.635 151.716V139.545ZM333.998 157.247C333.163 157.247 332.419 157.102 331.765 156.812C331.112 156.517 330.595 156.082 330.214 155.509C329.839 154.929 329.652 154.207 329.652 153.344C329.652 152.616 329.785 152.006 330.052 151.511C330.319 151.017 330.683 150.619 331.143 150.318C331.603 150.017 332.126 149.79 332.711 149.636C333.302 149.483 333.922 149.375 334.569 149.312C335.331 149.233 335.944 149.159 336.41 149.091C336.876 149.017 337.214 148.909 337.424 148.767C337.635 148.625 337.74 148.415 337.74 148.136V148.085C337.74 147.545 337.569 147.128 337.228 146.832C336.893 146.537 336.416 146.389 335.797 146.389C335.143 146.389 334.623 146.534 334.237 146.824C333.85 147.108 333.595 147.466 333.47 147.898L330.112 147.625C330.282 146.83 330.618 146.142 331.118 145.562C331.618 144.977 332.262 144.528 333.052 144.216C333.848 143.898 334.768 143.739 335.814 143.739C336.541 143.739 337.237 143.824 337.902 143.994C338.572 144.165 339.166 144.429 339.683 144.787C340.206 145.145 340.618 145.605 340.919 146.168C341.22 146.724 341.37 147.392 341.37 148.17V157H337.927V155.185H337.825C337.615 155.594 337.333 155.955 336.981 156.267C336.629 156.574 336.206 156.815 335.711 156.991C335.217 157.162 334.646 157.247 333.998 157.247ZM335.038 154.741C335.572 154.741 336.044 154.636 336.453 154.426C336.862 154.21 337.183 153.92 337.416 153.557C337.649 153.193 337.765 152.781 337.765 152.321V150.932C337.652 151.006 337.495 151.074 337.297 151.136C337.103 151.193 336.885 151.247 336.64 151.298C336.396 151.344 336.152 151.386 335.907 151.426C335.663 151.46 335.441 151.491 335.243 151.52C334.816 151.582 334.444 151.682 334.126 151.818C333.808 151.955 333.561 152.139 333.385 152.372C333.208 152.599 333.12 152.884 333.12 153.224C333.12 153.719 333.299 154.097 333.657 154.358C334.021 154.614 334.481 154.741 335.038 154.741ZM347.818 149.432V157H344.187V143.909H347.647V146.219H347.801C348.091 145.457 348.576 144.855 349.258 144.412C349.94 143.963 350.767 143.739 351.738 143.739C352.647 143.739 353.44 143.938 354.116 144.335C354.792 144.733 355.318 145.301 355.693 146.04C356.068 146.773 356.255 147.648 356.255 148.665V157H352.625V149.312C352.63 148.511 352.426 147.886 352.011 147.438C351.596 146.983 351.025 146.756 350.298 146.756C349.809 146.756 349.377 146.861 349.002 147.071C348.633 147.281 348.343 147.588 348.133 147.991C347.929 148.389 347.824 148.869 347.818 149.432ZM379.339 139.545V157H376.152L368.558 146.014H368.43V157H364.74V139.545H367.978L375.512 150.523H375.666V139.545H379.339Z" fill="#4B4B4B"/>
<path d="M458 13C458 5.8203 463.82 0 471 0H581C588.18 0 594 5.8203 594 13V158C594 165.18 588.18 171 581 171H471C463.82 171 458 165.18 458 158V13Z" fill="#282828"/>
<mask id="mask2_449_8533" style="mask-type:alpha" maskUnits="userSpaceOnUse" x="469" y="8" width="114" height="114">
<path d="M583 8H469V122H583V8Z" fill="white"/>
</mask>
<g mask="url(#mask2_449_8533)">
<path d="M551.062 79.9785C551.899 93.3237 552.735 106.672 531.344 107.677V125.333C531.344 125.333 524.855 129.125 516.203 129.125C507.552 129.125 501.063 122.932 501.063 122.932V88.3273C500.714 86.4942 500.468 84.6429 500.329 82.7822C498.238 82.6112 496.275 81.7077 494.785 80.231C493.295 78.7543 492.375 76.7992 492.185 74.7102C491.996 72.6211 492.55 70.5323 493.749 68.8116C494.949 67.091 496.718 65.849 498.743 65.3046C496.36 48.3328 500.186 31.1562 526.002 31.1562C551.985 31.1562 551.358 50.8925 550.863 66.4517C550.797 68.4912 550.734 70.4595 550.734 72.3013C550.734 74.8004 550.897 77.3886 551.06 79.9785H551.062Z" fill="#575757"/>
<path d="M500.329 82.784C500.047 79.2749 500.047 75.7053 500.047 72.3031C499.512 69.9906 499.077 67.6562 498.741 65.3064C496.72 65.8547 494.956 67.098 493.759 68.8178C492.563 70.5377 492.011 72.624 492.2 74.7104C492.39 76.7968 493.308 78.7498 494.794 80.2263C496.28 81.7028 498.239 82.6084 500.327 82.784H500.329ZM501.062 88.3237V122.926C501.062 122.926 507.552 129.12 516.203 129.12C524.855 129.12 531.344 125.326 531.344 125.326V107.673C530.489 107.713 529.6 107.732 528.675 107.732C509.452 107.732 503.138 98.9221 501.062 88.3219V88.3237Z" fill="black" fill-opacity="0.07"/>
<path d="M531.223 107.679C530.405 107.716 529.557 107.736 528.676 107.736C515.765 107.736 508.677 103.762 504.785 97.9389C505.681 106.53 510.418 113.067 519.557 113.067C520.43 113.067 521.239 113.074 521.989 113.079C528.75 113.138 530.756 113.156 531.223 107.681V107.679Z" fill="black" fill-opacity="0.07"/>
<path d="M536.688 81.0312H534.906C533.922 81.0312 533.125 81.8287 533.125 82.8125C533.125 83.7963 533.922 84.5938 534.906 84.5938H536.688C537.671 84.5938 538.469 83.7963 538.469 82.8125C538.469 81.8287 537.671 81.0312 536.688 81.0312Z" fill="black" fill-opacity="0.07"/>
<path d="M536.688 114.875H497.5C488.646 114.875 481.469 122.052 481.469 130.906V139.812C481.469 148.666 488.646 155.844 497.5 155.844H536.688C545.541 155.844 552.719 148.666 552.719 139.812V130.906C552.719 122.052 545.541 114.875 536.688 114.875Z" fill="#8C8C8C"/>
<path d="M508.184 57.875C507.064 63.2188 509.965 70.3117 509.965 71.669C509.965 73.0263 502.965 77.0573 501.059 78.3612C499.155 79.6633 498.387 65.8924 498.387 65.8924C493.043 65.8924 492.153 75.6893 492.153 75.6893C492.153 75.6893 488.156 74.3712 486.809 67.6737C485.901 63.1493 487.342 53.2651 487.7 50.7518C488.59 44.5174 489.481 30.2674 501.059 23.1424C512.637 16.0174 542.028 16.0174 549.153 17.7987C566.776 22.2037 569.135 46.2737 563.403 54.3143C554.496 64.1112 529.559 52.533 521.543 52.533C513.528 52.533 509.306 52.533 508.184 57.8768V57.875Z" fill="#727272"/>
<path d="M520.531 89.9375C520.531 89.4651 520.719 89.012 521.053 88.678C521.387 88.3439 521.84 88.1562 522.313 88.1562H538.597C539.069 88.1562 539.522 88.3439 539.856 88.678C540.191 89.012 540.378 89.4651 540.378 89.9375C540.378 92.2996 539.44 94.5649 537.77 96.2352C536.099 97.9054 533.834 98.8438 531.472 98.8438H529.438C527.076 98.8438 524.81 97.9054 523.14 96.2352C521.47 94.5649 520.531 92.2996 520.531 89.9375V89.9375Z" fill="#323232"/>
<path d="M534.472 98.3236C533.509 98.6669 532.494 98.8417 531.472 98.8402H529.438C527.137 98.8402 524.926 97.9501 523.267 96.3563C521.608 94.7626 520.631 92.5887 520.539 90.2902C521.899 89.7825 523.919 89.8395 525.913 89.8983C526.547 89.9161 527.177 89.9339 527.783 89.9339C531.719 89.9339 534.908 92.7269 534.908 96.1683C534.908 96.9271 534.753 97.6521 534.472 98.3236V98.3236Z" fill="#7A7A7A"/>
<path d="M522.438 88.1562H540.25V89.9375C540.25 90.4099 540.062 90.863 539.728 91.197C539.394 91.5311 538.941 91.7188 538.469 91.7188H524.219C523.746 91.7188 523.293 91.5311 522.959 91.197C522.625 90.863 522.438 90.4099 522.438 89.9375V88.1562Z" fill="white"/>
<path d="M522.438 73.0156C522.438 72.307 522.719 71.6274 523.22 71.1263C523.721 70.6252 524.401 70.3438 525.109 70.3438C525.818 70.3438 526.498 70.6252 526.999 71.1263C527.5 71.6274 527.781 72.307 527.781 73.0156V75.2012C527.781 75.4684 527.564 75.6875 527.295 75.6875H522.924C522.795 75.6875 522.671 75.6363 522.58 75.5451C522.489 75.4539 522.438 75.3302 522.438 75.2012V73.0156V73.0156ZM540.25 73.0156C540.25 72.307 540.531 71.6274 541.033 71.1263C541.534 70.6252 542.213 70.3438 542.922 70.3438C543.631 70.3438 544.31 70.6252 544.811 71.1263C545.312 71.6274 545.594 72.307 545.594 73.0156V75.2012C545.594 75.4684 545.376 75.6875 545.107 75.6875H540.736C540.607 75.6875 540.484 75.6363 540.392 75.5451C540.301 75.4539 540.25 75.3302 540.25 75.2012V73.0156V73.0156Z" fill="#272727"/>
</g>
<path d="M501.635 139.545H505.282V151.716C505.282 152.841 505.029 153.818 504.524 154.648C504.024 155.477 503.328 156.116 502.436 156.565C501.544 157.014 500.507 157.239 499.325 157.239C498.274 157.239 497.319 157.054 496.461 156.685C495.609 156.31 494.933 155.741 494.433 154.98C493.933 154.213 493.686 153.25 493.691 152.091H497.365C497.376 152.551 497.47 152.946 497.646 153.276C497.828 153.599 498.075 153.849 498.387 154.026C498.706 154.196 499.081 154.281 499.512 154.281C499.967 154.281 500.35 154.185 500.663 153.991C500.981 153.793 501.223 153.503 501.387 153.122C501.552 152.741 501.635 152.273 501.635 151.716V139.545ZM511.998 157.247C511.163 157.247 510.419 157.102 509.765 156.812C509.112 156.517 508.595 156.082 508.214 155.509C507.839 154.929 507.652 154.207 507.652 153.344C507.652 152.616 507.785 152.006 508.052 151.511C508.319 151.017 508.683 150.619 509.143 150.318C509.603 150.017 510.126 149.79 510.711 149.636C511.302 149.483 511.922 149.375 512.569 149.312C513.331 149.233 513.944 149.159 514.41 149.091C514.876 149.017 515.214 148.909 515.424 148.767C515.635 148.625 515.74 148.415 515.74 148.136V148.085C515.74 147.545 515.569 147.128 515.228 146.832C514.893 146.537 514.416 146.389 513.797 146.389C513.143 146.389 512.623 146.534 512.237 146.824C511.85 147.108 511.595 147.466 511.47 147.898L508.112 147.625C508.282 146.83 508.618 146.142 509.118 145.562C509.618 144.977 510.262 144.528 511.052 144.216C511.848 143.898 512.768 143.739 513.814 143.739C514.541 143.739 515.237 143.824 515.902 143.994C516.572 144.165 517.166 144.429 517.683 144.787C518.206 145.145 518.618 145.605 518.919 146.168C519.22 146.724 519.37 147.392 519.37 148.17V157H515.927V155.185H515.825C515.615 155.594 515.333 155.955 514.981 156.267C514.629 156.574 514.206 156.815 513.711 156.991C513.217 157.162 512.646 157.247 511.998 157.247ZM513.038 154.741C513.572 154.741 514.044 154.636 514.453 154.426C514.862 154.21 515.183 153.92 515.416 153.557C515.649 153.193 515.765 152.781 515.765 152.321V150.932C515.652 151.006 515.495 151.074 515.297 151.136C515.103 151.193 514.885 151.247 514.64 151.298C514.396 151.344 514.152 151.386 513.907 151.426C513.663 151.46 513.441 151.491 513.243 151.52C512.816 151.582 512.444 151.682 512.126 151.818C511.808 151.955 511.561 152.139 511.385 152.372C511.208 152.599 511.12 152.884 511.12 153.224C511.12 153.719 511.299 154.097 511.657 154.358C512.021 154.614 512.481 154.741 513.038 154.741ZM525.818 149.432V157H522.187V143.909H525.647V146.219H525.801C526.091 145.457 526.576 144.855 527.258 144.412C527.94 143.963 528.767 143.739 529.738 143.739C530.647 143.739 531.44 143.938 532.116 144.335C532.792 144.733 533.318 145.301 533.693 146.04C534.068 146.773 534.255 147.648 534.255 148.665V157H530.625V149.312C530.63 148.511 530.426 147.886 530.011 147.438C529.596 146.983 529.025 146.756 528.298 146.756C527.809 146.756 527.377 146.861 527.002 147.071C526.633 147.281 526.343 147.588 526.133 147.991C525.929 148.389 525.824 148.869 525.818 149.432ZM557.339 139.545V157H554.152L546.558 146.014H546.43V157H542.74V139.545H545.978L553.512 150.523H553.666V139.545H557.339Z" fill="#4B4B4B"/>
</svg>
