<svg viewBox="0 0 48 41" fill="none" xmlns="http://www.w3.org/2000/svg">
<path d="M5.55149 35L0.557173 17.5455H4.58842L7.47763 29.6733H7.62251L10.81 17.5455H14.2617L17.4407 29.6989H17.5941L20.4833 17.5455H24.5146L19.5202 35H15.9237L12.5998 23.5881H12.4634L9.14808 35H5.55149ZM27.7404 35H23.7859L29.8114 17.5455H34.5671L40.5842 35H36.6296L32.2575 21.5341H32.1211L27.7404 35ZM27.4933 28.1392H36.8342V31.0199H27.4933V28.1392ZM46.3754 17.5455V35H42.685V17.5455H46.3754Z" fill="white" fill-opacity="0.25"/>
<path d="M5.55149 29L0.557173 11.5455H4.58842L7.47763 23.6733H7.62251L10.81 11.5455H14.2617L17.4407 23.6989H17.5941L20.4833 11.5455H24.5146L19.5202 29H15.9237L12.5998 17.5881H12.4634L9.14808 29H5.55149ZM27.7404 29H23.7859L29.8114 11.5455H34.5671L40.5842 29H36.6296L32.2575 15.5341H32.1211L27.7404 29ZM27.4933 22.1392H36.8342V25.0199H27.4933V22.1392ZM46.3754 11.5455V29H42.685V11.5455H46.3754Z" fill="white" fill-opacity="0.5"/>
<path d="M5.55149 23L0.557173 5.54545H4.58842L7.47763 17.6733H7.62251L10.81 5.54545H14.2617L17.4407 17.6989H17.5941L20.4833 5.54545H24.5146L19.5202 23H15.9237L12.5998 11.5881H12.4634L9.14808 23H5.55149ZM27.7404 23H23.7859L29.8114 5.54545H34.5671L40.5842 23H36.6296L32.2575 9.53409H32.1211L27.7404 23ZM27.4933 16.1392H36.8342V19.0199H27.4933V16.1392ZM46.3754 5.54545V23H42.685V5.54545H46.3754Z" fill="white"/>
</svg>
